<?xml version="1.0" encoding="UTF-8"?>
<svg fill="#FFFFFF" width="100pt" height="100pt" version="1.1" viewBox="0 0 100 100" xmlns="http://www.w3.org/2000/svg">
    <g>
        <path d="m94.398 50.301c-1.1016 0-2.1016 0.89844-2.1016 2.1016 0 23.398-19 42.5-42.5 42.5-23.496-0.003906-42.398-19.102-42.398-42.504 0-22.398 17.5-40.801 39.5-42.301l-1.8984 1.3984c-0.89844 0.69922-1.1016 2-0.39844 2.8984 0.39844 0.5 1 0.80078 1.6016 0.80078 0.39844 0 0.89844-0.10156 1.3008-0.39844l6.8008-5.1992c0.5-0.39844 0.80078-1 0.80078-1.6992 0-0.69922-0.39844-1.3008-0.89844-1.6016l-6.8008-4.6016c-0.89844-0.60156-2.1992-0.39844-2.8984 0.60156-0.50781 0.80469-0.30859 2.1016 0.69141 2.7031l1.3984 0.89844c-24.199 1.7031-43.297 21.902-43.297 46.5 0 25.699 20.898 46.602 46.602 46.602 25.699 0 46.496-21 46.496-46.602 0-1.1992-0.89844-2.0977-2-2.0977z" />
        <path d="m95.301 41.602c0 3.332-5 3.332-5 0 0-3.3359 5-3.3359 5 0" />
        <path d="m92 32.199c0 3.3359-5 3.3359-5 0 0-3.332 5-3.332 5 0" />
        <path d="m86 23.5c0 3.332-5 3.332-5 0s5-3.332 5 0" />
        <path d="m77.699 15.898c0 3.3359-5 3.3359-5 0 0-3.332 5-3.332 5 0" />
        <path d="m67.699 10.699c0 3.3359-5 3.3359-5 0 0-3.332 5-3.332 5 0" />
        <path d="m60.301 45.301c0 3.8672-5.8008 3.8672-5.8008 0 0-3.8672 5.8008-3.8672 5.8008 0" />
        <path d="m49.898 22c-16.602 0-30.102 13.5-30.102 30.102 0 16.602 13.5 30.102 30.102 30.102 16.602-0.003906 30.102-13.402 30.102-30.102 0-16.602-13.5-30.102-30.102-30.102zm-14.898 45.699s2.5-10.699 6.6016-6.6016c4.0977 4.1016-6.6016 6.6016-6.6016 6.6016zm29.699-29c-0.10156 11.898-6.3008 17.699-11.301 20.398l1.1016 4.6016-2.3984 2.3984-5.6016-5.6016c0 1-0.39844 2-1.1992 2.8008l-6-6c0.80078-0.80078 1.8008-1.1992 2.8008-1.1992l-5.6016-5.6016 2.3984-2.3984 4.6016 1.1016c2.6992-4.8984 8.5-11.098 20.5-11.199h0.80078z" />
    </g>
</svg>