<?xml version="1.0" encoding="UTF-8"?>
<svg fill="#FFFFFF" width="100pt" height="100pt" version="1.1" viewBox="0 0 100 100" xmlns="http://www.w3.org/2000/svg">
    <g>
        <path d="m58.328 21.059h34.527v13.809h-34.527z" />
        <path d="m93.402 73.711c-0.39062-1.5195-0.99219-2.9648-1.7852-4.2969-0.37891-0.64062-0.34766-1.4414 0.082031-2.043l2.5195-3.5352-2.9648-2.9648-3.4961 2.5547c-0.60156 0.42188-1.3945 0.45703-2.0352 0.082031-1.3789-0.8125-2.8594-1.418-4.4102-1.8086-0.71484-0.17578-1.2578-0.76562-1.3867-1.5039l-0.71094-4.2578h-4.1523l-0.73828 4.3203c-0.12109 0.71484-0.66016 1.3047-1.3672 1.5-1.4844 0.37891-2.9258 0.98438-4.2969 1.8047-0.63281 0.37891-1.4375 0.35156-2.0469-0.078125l-3.5234-2.5156-2.9414 2.9453 2.543 3.5742c0.42969 0.58594 0.46094 1.3867 0.097656 2.0156-0.77734 1.3281-1.3711 2.7773-1.7578 4.3164-0.18359 0.72266-0.77344 1.2578-1.5078 1.3828l-4.2539 0.72266v4.1484l4.3203 0.73828c0.71484 0.125 1.3008 0.66016 1.4961 1.3633 0.38672 1.4961 0.99219 2.9375 1.8086 4.293 0.375 0.64844 0.33984 1.4492-0.082031 2.0508l-2.5117 3.5234 2.9648 2.9609 3.5469-2.5625c0.55859-0.41406 1.3867-0.46484 2.0195-0.10156 1.3477 0.76953 2.7617 1.3516 4.2109 1.7266 0.71094 0.18359 1.25 0.76953 1.3711 1.4961l0.71484 4.2891h4.1523l0.72656-4.2891c0.11328-0.72656 0.64844-1.3125 1.375-1.4961 1.5273-0.39453 2.9766-1 4.2969-1.7891 0.64453-0.375 1.4453-0.34766 2.043 0.085937l3.5391 2.5195 2.9414-2.9453-2.5195-3.5547c-0.42188-0.59766-0.45312-1.3945-0.082032-2.0273 0.79297-1.332 1.3945-2.7773 1.7891-4.3047 0.17969-0.70312 0.76562-1.2422 1.4922-1.3672l4.2891-0.71484 0.011719-4.1523-4.2891-0.72656c-0.71875-0.11719-1.3086-0.66016-1.4922-1.3789zm-16.176 15.504c-6.25 0-11.336-5.0859-11.336-11.336s5.0859-11.332 11.336-11.332 11.336 5.082 11.336 11.332-5.0859 11.336-11.336 11.336z" />
        <path d="m77.227 70.289c-4.1875 0-7.5977 3.4102-7.5977 7.5977s3.4102 7.6016 7.5977 7.6016 7.5977-3.4141 7.5977-7.6016c-0.003907-4.1914-3.4102-7.5977-7.5977-7.5977z" />
        <path d="m0.51562 0.14844v10.238h98.961l0.003907-10.238zm5.1758 6.9648c-1.0156 0-1.8398-0.82422-1.8398-1.8398 0-1.0156 0.82422-1.8398 1.8398-1.8398s1.8398 0.82422 1.8398 1.8398c0.003906 1.0156-0.82422 1.8398-1.8398 1.8398zm6.9062 0c-1.0156 0-1.8398-0.82422-1.8398-1.8398 0-1.0156 0.82422-1.8398 1.8398-1.8398s1.8398 0.82422 1.8398 1.8398c0 1.0156-0.82422 1.8398-1.8398 1.8398zm6.9023 0c-1.0156 0-1.8398-0.82422-1.8398-1.8398 0-1.0195 0.82422-1.8438 1.8398-1.8438s1.8398 0.82422 1.8398 1.8398c0 1.0195-0.82422 1.8438-1.8398 1.8438zm75.863-0.058593h-32.816c-0.98438 0-1.7852-0.80078-1.7852-1.7852s0.80078-1.7852 1.7852-1.7852h32.816c0.98438 0 1.7852 0.80078 1.7852 1.7852-0.003907 0.98438-0.80078 1.7852-1.7852 1.7852z" />
        <path d="m0.51562 82.055h51.59c-0.33203-0.54688-0.56641-1.1602-0.56641-1.8359v-4.4375c0-1.75 1.2539-3.2344 2.9766-3.5195l3.2305-0.54688c0.32812-1.0469 0.74219-2.0586 1.2266-3.0117l-1.9531-2.7461c-1.0117-1.4219-0.85156-3.3516 0.38672-4.582l3.1484-3.1445c1.1875-1.1992 3.2109-1.3711 4.5977-0.37891l2.6758 1.9258c0.96094-0.5 1.9648-0.92969 2.9961-1.2617l0.5625-3.3164c0.29297-1.7266 1.7695-2.9766 3.5195-2.9766h4.4375c1.75 0 3.2305 1.25 3.5195 2.9766l0.54688 3.2305c1.0508 0.32422 2.1055 0.75781 3.1328 1.2891l2.707-1.9258c1.3594-0.98828 3.375-0.82422 4.5781 0.38672l3.1406 3.1367c1.2383 1.2305 1.3984 3.1602 0.38672 4.5859l-1.9297 2.6953c0.48828 0.95703 0.91016 1.9648 1.2422 3.0039l2.8125 0.48047 0.003906-58.281h-98.969zm54.242-62.781c0-0.98438 0.80078-1.7852 1.7852-1.7852h38.102c0.98438 0 1.7852 0.80078 1.7852 1.7852v17.383c0 0.98438-0.80078 1.7891-1.7852 1.7891h-38.102c-0.98438 0-1.7852-0.80078-1.7852-1.7891zm-1.6836 32.062c0 0.98437-0.80078 1.7891-1.7852 1.7891h-37.539c-0.98438 0-1.7852-0.80078-1.7852-1.7891 0-0.98438 0.80078-1.7891 1.7852-1.7891h37.539c0.98438 0.007813 1.7852 0.80859 1.7852 1.7891zm-49.195-28.941c-0.76562-0.61719-0.89062-1.7422-0.27344-2.5117 0.61719-0.76562 1.7383-0.89453 2.5117-0.27734l18.73 14.984c0.42188 0.33984 0.67188 0.85547 0.67188 1.3945-0.003906 0.53906-0.25781 1.0586-0.67969 1.3945l-18.73 14.98c-0.32422 0.26172-0.72266 0.39062-1.1094 0.39062-0.52344 0-1.0469-0.23047-1.3945-0.67188-0.61328-0.76953-0.49219-1.8945 0.27734-2.5117l16.988-13.582z" />
    </g>
</svg>