<?xml version="1.0" encoding="UTF-8"?>
<svg fill="#FFFFFF" width="100pt" height="100pt" version="1.1" viewBox="0 0 100 100" xmlns="http://www.w3.org/2000/svg">
    <g>
        <path d="m76.699 97.398c9 0 16.301-7.3008 16.301-16.301s-7.3008-16.301-16.301-16.301-16.301 7.3008-16.301 16.301c0 9.0039 7.3008 16.301 16.301 16.301zm-0.30078-26.598c1.3008 0 2.3984 1.1016 2.3984 2.3984 0 1.3008-1.1016 2.3984-2.3984 2.3984-1.3008 0-2.3984-1.1016-2.3984-2.3984-0.10156-1.3008 1-2.3984 2.3984-2.3984zm-3.0977 16.5h1.1992v-6.6016h-1.1992v-3.3008h5.4023v9.8984h1.1992v3.3008h-6.6992l-0.003906-3.2969z" />
        <path d="m20.801 43.898c0.60156 2 1.6016 5.6992 4 8 1.8008 6.6992 7 14.398 15.398 17.301 2 0.69922 4.1016 1.1016 6.1992 1.1016 2.1992 0 4.3008-0.39844 6.3008-1.1016 8.3984-3 13.602-10.699 15.398-17.301 2.3984-2.1992 3.3984-6 4-8 0.89844-3.1992 1.8008-7.6992-0.60156-10.898-0.10156-0.10156-0.19922-0.19922-0.30078-0.39844 1.3008-8.3984 0.39844-14.699-2.8008-18.801-1.5-1.8984-3.1992-3-4.6016-3.5-1.0938-1.3008-2.9922-3.1992-5.793-4.6992-3.3008-1.8984-7-2.8984-11.102-2.8984-0.69922 0-1.3984 0-2.1016 0.10156-1.8008 0.10156-3.6016 0.39844-5.3984 1-1.8984 0.69922-3.8984 1.6016-5.6992 2.8984-2 1.3008-3.8984 2.8008-5.6016 4.6016-3.1992 3.3008-5.3008 7.1016-6.3008 11.102-0.80078 3-0.80078 6.3008-0.10156 10.199-0.10156 0.10156-0.19922 0.19922-0.30078 0.39844-2.3945 3.1953-1.4961 7.6953-0.59375 10.895zm6.0977-8.7969h0.30078s1.3984-19.398 17.102-12.699c8.1992 3.5 14.301 3.3008 18.199 2.3984 5 3.3984 3.5 9.1992 3.1992 10.102v0.10156h0.30078c1.6016 0 3.3008 1.3008 1.5 7.5-1.3984 4.8984-2.6992 6.3008-3.6016 6.3008-0.89844 5.8008-5.5 13.199-12.801 15.801-1.5 0.5-3.1016 0.80078-4.6992 0.80078-1.6016 0-3.1992-0.30078-4.6992-0.80078-7.3008-2.4062-11.801-9.8047-12.699-15.605-1-0.10156-2.3008-1.3984-3.6016-6.3008-1.7969-6.3984-0.097657-7.5977 1.5-7.5977z" />
        <path d="m46.5 97.199c5.1016 0 10.102-0.80078 14.699-2.3008-3.3008-3.6992-5.3984-8.6016-5.3984-13.898 0-3.3008 0.80078-6.3984 2.1016-9.1992-1.1016 0.60156-2.3984 1.1992-3.6992 1.6016-2.5 0.89844-5.1992 1.3984-7.8984 1.3984-2.6992 0-5.3008-0.39844-7.8008-1.3008-5.1992-1.8008-9.1992-5-12.199-8.6992-4.1055 2.3984-11.605 6.5977-19.305 12.301 8.8008 12.199 23.199 20.098 39.5 20.098z" />
    </g>
</svg>