<?xml version="1.0" encoding="UTF-8"?>
<svg fill="#FFFFFF" width="100pt" height="100pt" version="1.1" viewBox="0 0 100 100" xmlns="http://www.w3.org/2000/svg">
    <path d="m15.07 82.133c-4.3672 0-7.3984-1.1445-9.5273-3.5977-2.2969-2.6445-3.4102-6.8281-3.4102-12.797 0-6.4609 1.2656-12.73 3.7617-18.633 2.4102-5.6992 5.8633-10.82 10.258-15.219 4.3945-4.3945 9.5156-7.8477 15.215-10.258 5.9023-2.4961 12.172-3.7656 18.633-3.7656 6.4648 0 12.73 1.2695 18.633 3.7656 5.6992 2.4102 10.82 5.8633 15.215 10.258 4.3945 4.3945 7.8477 9.5156 10.258 15.219 2.4961 5.9023 3.7617 12.172 3.7617 18.633 0 11.34-3.9922 16.395-12.941 16.395-3.8711 0-8.3594-0.88281-13.559-1.9023-6.418-1.2617-13.691-2.6914-21.371-2.6914-7.6758 0-14.949 1.4297-21.367 2.6914-5.1953 1.0234-9.6836 1.9023-13.555 1.9023h-0.003907zm29.688-55.203l-1.7617 0.27734 1.6875 10.66 1.7617-0.28125zm-6.0078 1.2969l-1.6953 0.55078 3.3359 10.266 1.6953-0.55078zm-5.7305 2.2227l-1.5898 0.80859 4.8984 9.6172 1.5898-0.8125zm-5.3125 3.0898l-1.4414 1.0469 6.3438 8.7305 1.4414-1.0508zm-4.7617 3.8867l-1.2617 1.2617 7.6328 7.6328 1.2617-1.2617zm-4.0938 4.5781l-1.0508 1.4414 8.7305 6.3438 1.0508-1.4453zm-3.332 5.1641l-0.8125 1.5898 9.6172 4.8984 0.8125-1.5898zm-2.4805 5.625l-0.55078 1.6953 10.266 3.3359 0.55078-1.6953zm-1.5703 5.9414l-0.27734 1.7617 10.66 1.6875 0.27734-1.7617zm-3.2305 5.4258v3.1602h13.402v-3.1602zm70.078 0v3.1602h13.402v-3.1602zm-29.895-26.738h3.1602l-0.003906-13.402h-3.1562zm40.387 23.07l-0.27734-1.7617-10.66 1.6875 0.27734 1.7617zm-1.2969-6.0039l-0.55078-1.6953-10.266 3.3359 0.55078 1.6953zm-2.2227-5.7305l-0.80859-1.5898-9.6172 4.8984 0.8125 1.5898zm-3.0898-5.3125l-1.0469-1.4414-8.7305 6.3438 1.0508 1.4414zm-3.8828-4.7617l-1.2617-1.2617-7.6328 7.6328 1.2617 1.2617zm-4.582-4.0977l-1.4414-1.0469-6.3438 8.7305 1.4414 1.0469zm-5.1641-3.3281l-1.5898-0.80859-4.8984 9.6172 1.5898 0.80859zm-5.625-2.4805l-1.6953-0.55078-3.3359 10.266 1.6953 0.55078zm-5.9375-1.5703l-1.7617-0.27734-1.6914 10.66 1.7617 0.27734zm-10.938 36.953h-22.105v3.1602h22.105c0.62891 1.5859 2.1758 2.707 3.9844 2.707 2.3672 0 4.2891-1.918 4.2852-4.2852 0-2.3672-1.918-4.2891-4.2852-4.2852-1.8086-0.003906-3.3555 1.1172-3.9844 2.7031zm3.9609-8.5781c1.1367 0 2.0547-0.92188 2.0547-2.0547 0-0.68359-0.33203-1.2812-0.84375-1.6562v-1.7266h0.015624 1.4062c0.125 0 0.22656-0.097656 0.22656-0.21484v-0.62109c0-0.11719-0.10156-0.21484-0.22656-0.21484h-1.4062c-0.003906 0-0.011718 0-0.015624 0.003906v-1.4922h0.015624 1.4062c0.125 0 0.22656-0.097657 0.22656-0.21484v-0.61719c0-0.11719-0.10156-0.21484-0.22656-0.21484h-1.4062-0.015624v-1.4883h0.015624 1.4062c0.125 0 0.22656-0.097656 0.22656-0.21484v-0.61719c0-0.11719-0.10156-0.21484-0.22656-0.21484h-1.4062c-0.003906 0-0.011718 0.003906-0.015624 0.003906v-0.59375c0-0.66797-0.54297-1.2148-1.2148-1.2148s-1.2148 0.54297-1.2148 1.2148v8.4414c-0.51172 0.375-0.84375 0.97656-0.84375 1.6562 0.003906 1.1289 0.92578 2.0508 2.0625 2.0508zm2.3945-3.1797c0.14453 0.32812 0.23047 0.6875 0.23047 1.0703 0 0.027344 0 0.058594-0.003906 0.089844 0.35547-0.078125 0.78516-0.003906 1.2852 0.46094 1.0586 0.98047 2.375 0.99219 3.6172 0.035156 0.79297-0.61328 1.2109-0.59375 1.2148-0.59375-0.027343 0-0.042969-0.007813-0.042969-0.007813l0.24609-1.1602c-0.19922-0.042969-0.9375-0.10938-2.1445 0.82031-0.79297 0.60937-1.457 0.62109-2.0898 0.035156-0.71875-0.67188-1.5234-0.92188-2.3125-0.75zm-11.195 1.0625c0.003906 0 0.42188-0.019532 1.2148 0.59375 1.2422 0.95703 2.5625 0.94531 3.6172-0.035156 0.53906-0.5 1-0.55078 1.3672-0.4375-0.003907-0.035157-0.003907-0.070313-0.003907-0.10938 0-0.37891 0.078125-0.73047 0.22266-1.0547-0.8125-0.20312-1.6445 0.042969-2.3945 0.73438-0.63281 0.58594-1.2969 0.57812-2.0898-0.035156-1.2031-0.92969-1.9453-0.86328-2.1445-0.82031l0.24609 1.1602c0.003906-0.003907-0.007813 0-0.035156 0.003906zm15.602 2.668c-0.79297 0.60938-1.457 0.62109-2.0898 0.035157-1.0781-1.0039-2.3398-1.0703-3.4609-0.19531-0.49219 0.38672-0.86328 0.62109-1.2031 0.62891-0.027344 0-0.054687 0.003907-0.078125 0.007813-0.023438-0.003906-0.050781-0.007813-0.078125-0.007813-0.33984-0.003906-0.71484-0.24219-1.2031-0.62891-1.1211-0.87891-2.3828-0.80859-3.4609 0.19531-0.63281 0.58594-1.2969 0.57422-2.0898-0.035157-1.2031-0.92969-1.9453-0.86328-2.1445-0.82031l0.24609 1.1602s-0.015625 0.007813-0.039062 0.007813c0.003906 0 0.42188-0.019531 1.2148 0.59375 1.2422 0.95703 2.5625 0.94531 3.6172-0.035157 0.85547-0.79687 1.5078-0.45703 1.9258-0.12891 0.5625 0.4375 1.1719 0.86719 1.918 0.87891h0.007812c0.027344 0 0.058594-0.003906 0.085938-0.011718 0.027344 0.003906 0.058594 0.011718 0.085938 0.011718h0.007812c0.74609-0.011718 1.3555-0.44141 1.918-0.87891 0.41406-0.32812 1.0664-0.66406 1.9219 0.12891 1.0586 0.98047 2.375 0.99219 3.6172 0.035157 0.79297-0.61328 1.2109-0.59375 1.2148-0.59375-0.027344-0.003907-0.042969-0.007813-0.042969-0.007813l0.24609-1.1602c-0.19141-0.042969-0.93359-0.10547-2.1367 0.82031z" />
</svg>