<?xml version="1.0" encoding="UTF-8"?>
<svg fill="#FFFFFF" width="100pt" height="100pt" version="1.1" viewBox="0 0 100 100" xmlns="http://www.w3.org/2000/svg">
    <g>
        <path d="m64.188 50.434c-0.0625-0.039063-0.12109-0.082032-0.17578-0.12891l-11.555-9.8359c-0.55469-0.46875-0.71094-1.2578-0.37891-1.9023 1.8633-3.6211 1.168-8.0312-1.7148-10.902-2.3789-2.3555-5.8203-3.2773-9.0547-2.4258l2.4258 2.4219v0.003906c1.8203 1.832 1.8164 4.793-0.011719 6.6172-1.8242 1.8281-4.7891 1.832-6.6211 0.011719l-2.4219-2.4258c-0.85156 3.2344 0.070312 6.6758 2.4219 9.0547 2.875 2.8867 7.2852 3.5781 10.906 1.7148 0.64453-0.33203 1.4336-0.17578 1.9023 0.37891l9.8359 11.555c0.046875 0.054688 0.089844 0.11328 0.12891 0.17578 0.50781 0.80078 1.3516 1.332 2.2969 1.4375 0.94141 0.10156 1.8828-0.22656 2.5547-0.89844 0.67188-0.67188 1-1.6094 0.89453-2.5547-0.10156-0.94531-0.63281-1.7891-1.4336-2.2969z" />
        <path d="m65.625 14.062v-7.8125h-42.188c-4.3125 0.003906-7.8086 3.5-7.8125 7.8125v54.688h68.75v-43.75h-7.8125c-6.0391-0.007812-10.93-4.8984-10.938-10.938zm1.3086 43.43c-1.1719 1.1719-2.7617 1.832-4.418 1.832s-3.2461-0.66016-4.418-1.832c-0.30078-0.29688-0.56641-0.625-0.79688-0.97266l-9.0117-10.586c-4.8828 1.9102-10.445 0.56641-13.918-3.3633-3.4766-3.9297-4.1289-9.6094-1.6328-14.227 0.23438-0.43359 0.66016-0.73047 1.1484-0.80078 0.48828-0.074219 0.98047 0.089843 1.3281 0.44141l4.0977 4.0977c0.61328 0.58594 1.5859 0.57422 2.1875-0.023437 0.60156-0.60156 0.60938-1.5742 0.023438-2.1875l-4.0977-4.0977c-0.34766-0.34766-0.51172-0.83984-0.44141-1.3281 0.070313-0.48828 0.36719-0.91406 0.80469-1.1484 4.8672-2.6055 10.863-1.7305 14.781 2.1562 3.5234 3.5078 4.625 8.7695 2.8047 13.395l10.586 9.0117c0.35156 0.23047 0.67578 0.49609 0.97656 0.79297 1.1719 1.1758 1.8281 2.7617 1.8281 4.4219 0 1.6562-0.65625 3.2461-1.8281 4.418z" />
        <path d="m15.625 85.938c0.003906 4.3125 3.5 7.8086 7.8125 7.8125h53.125c4.3125-0.003906 7.8086-3.5 7.8125-7.8125v-14.062h-68.75zm48.438-10.938c0.76953 0 1.5312 0.17188 2.2305 0.50391 0.77734 0.36719 1.1133 1.3008 0.74609 2.082-0.36719 0.78125-1.3008 1.1133-2.082 0.74609-0.27734-0.13672-0.58594-0.20703-0.89453-0.20703-1.6953 0-3.125 2.1484-3.125 4.6875s1.4297 4.6875 3.125 4.6875c1.332 0 2.5-1.3242 2.9375-3.125h-1.375c-0.86328 0-1.5625-0.69922-1.5625-1.5625s0.69922-1.5625 1.5625-1.5625h3.125c0.41406 0 0.8125 0.16406 1.1055 0.45703s0.45703 0.69141 0.45703 1.1055c0 4.3086-2.8047 7.8125-6.25 7.8125s-6.25-3.5039-6.25-7.8125 2.8047-7.8125 6.25-7.8125zm-15.625 0c3.4453 0 6.25 3.5039 6.25 7.8125s-2.8047 7.8125-6.25 7.8125-6.25-3.5039-6.25-7.8125 2.8047-7.8125 6.25-7.8125zm-18.75 1.5625c0-0.86328 0.69922-1.5625 1.5625-1.5625s1.5625 0.69922 1.5625 1.5625v10.938h4.6875c0.86328 0 1.5625 0.69922 1.5625 1.5625s-0.69922 1.5625-1.5625 1.5625h-6.25c-0.86328 0-1.5625-0.69922-1.5625-1.5625z" />
        <path d="m51.562 82.812c0 6.25-6.25 6.25-6.25 0s6.25-6.25 6.25 0" />
        <path d="m76.562 21.875h5.6016l-13.414-13.414v5.6016c0.003906 4.3125 3.5 7.8086 7.8125 7.8125z" />
    </g>
</svg>