<?xml version="1.0" encoding="UTF-8"?>
<svg fill="#FFFFFF" width="100pt" height="100pt" version="1.1" viewBox="0 0 100 100" xmlns="http://www.w3.org/2000/svg">
    <path d="m85.359 14.641c-9.375-9.3789-22.094-14.645-35.355-14.645-13.262 0-25.977 5.2656-35.355 14.645-9.375 9.375-14.645 22.094-14.645 35.355 0 13.262 5.2695 25.977 14.645 35.355 9.3789 9.375 22.094 14.645 35.355 14.645 13.262 0 25.98-5.2695 35.355-14.645 9.4102-9.3633 14.699-22.086 14.699-35.355 0-13.273-5.2891-25.996-14.699-35.355zm-28.688 61.918h-13.344v-33h13.344zm-6.6719-38.559c-2.957 0-5.625-1.7812-6.7539-4.5156-1.1328-2.7305-0.50391-5.8789 1.5898-7.9688 2.0898-2.0898 5.2383-2.7109 7.9688-1.5781 2.7305 1.1367 4.5078 3.8047 4.5039 6.7617 0 1.9375-0.76953 3.7969-2.1406 5.168-1.3711 1.3672-3.2305 2.1367-5.168 2.1328z" />
</svg>