<?xml version="1.0" encoding="UTF-8"?>
<svg fill="#FFFFFF" width="100pt" height="100pt" version="1.1" viewBox="0 0 100 100" xmlns="http://www.w3.org/2000/svg">
    <g>
        <path d="m50 62.5c-15 0-27.082 4.582-27.082 10.418 0 5.832 12.082 10.418 27.082 10.418s27.082-4.582 27.082-10.418c0-5.8359-12.082-10.418-27.082-10.418zm0 14.582c-10.418 0-18.75-1.875-18.75-4.168 0-2.293 8.332-4.168 18.75-4.168s18.75 1.875 18.75 4.168c0 2.293-8.332 4.168-18.75 4.168z" />
        <path d="m50 16.668c-10.418 0-18.75 8.332-18.75 18.75s18.75 39.582 18.75 39.582 18.75-29.168 18.75-39.582c0-10.418-8.332-18.75-18.75-18.75zm0 27.082c-4.582 0-8.332-3.75-8.332-8.332s3.75-8.332 8.332-8.332 8.332 3.75 8.332 8.332-3.75 8.332-8.332 8.332z" />
    </g>
</svg>