<?xml version="1.0" encoding="UTF-8"?>
<svg fill="#FFFFFF" width="100pt" height="100pt" version="1.1" viewBox="0 0 100 100" xmlns="http://www.w3.org/2000/svg">
    <g>
        <path d="m12.379 89.359c0.60156 0.17188 1.2188 0.26172 1.9414 0.39844v6.4219c0.003907 2.1094 1.7109 3.8164 3.8203 3.8203h10.301c2.1055-0.003906 3.8086-1.7148 3.8086-3.8203v-6.4102h35.5v6.4102c0 2.1055 1.7031 3.8164 3.8086 3.8203h10.301c2.1094-0.003906 3.8164-1.7109 3.8203-3.8203v-6.4297l0.75-0.12891c3.4883-0.64062 5.6719-2.8281 6.1211-6.1211h-85.082c0.30469 2.7656 2.2422 5.0781 4.9102 5.8594z" />
        <path d="m92.648 42.461c0.13281 0.007812 0.26172 0.007812 0.39062 0 1.8438-0.007813 3.3359-1.5 3.3398-3.3398v-9.2617c0-0.89062-0.35938-1.7461-0.99609-2.3711-0.63281-0.62891-1.4922-0.97656-2.3828-0.96875-0.12891-0.007812-0.26172-0.007812-0.39062 0v-8c0.24219-4.4102-2.7031-8.3633-7-9.3906-5.9844-1.7891-12.094-3.125-18.281-4 0.15625-0.41406 0.23438-0.85547 0.23047-1.3008 0.007812-2.0742-1.6445-3.7734-3.7188-3.8281h-27.68c-2.1016 0.0039062-3.8047 1.707-3.8086 3.8086-0.003906 0.4375 0.070313 0.87109 0.21875 1.2812-6.3242 0.9375-12.57 2.3438-18.691 4.1992-3.8281 1.1055-6.4766 4.5938-6.5078 8.582v8.6719-0.003907c-0.13281-0.007812-0.26953-0.007812-0.40234 0-1.8398 0.007813-3.332 1.5-3.3398 3.3398v9.2812c0.019532 1.8477 1.5234 3.332 3.3711 3.3203 0.12891 0.011719 0.26172 0.011719 0.39062 0v38.52h85.25c0.007813-9 0.007813-25 0.007813-38.539zm-62 32.449h-6.7695-6.3906c-0.80078 0.050782-1.5898-0.23047-2.1758-0.78125-0.58594-0.55469-0.91797-1.3242-0.91406-2.1289-0.050782-1 0-2.0703 0-3.1016-0.035157-0.80469 0.26953-1.5898 0.83984-2.1602 0.57031-0.57031 1.3555-0.875 2.1602-0.83984 2.0039-0.046876 4.0078 0.035156 6 0.25 4 0.60156 6.6211 3.2305 8.6289 6.5312h0.003906c0.33594 0.45703 0.36328 1.0742 0.070312 1.5625-0.29297 0.48437-0.84766 0.75-1.4102 0.66797zm8.2109-17.609c-7.1797-0.125-14.332-0.92578-21.359-2.4023-0.32812-0.070313-0.64844-0.14844-1-0.23828-2-0.55859-2.1484-0.82031-2.1484-2.8789v-30.23c0-2.0508 0.33984-2.4805 2.3398-3 21.938-5.6367 44.953-5.6094 66.879 0.078125 1.6719 0.42969 2 0.87109 2 2.6484v15.441 15.453c0 1.5312-0.26953 2.0781-1.7812 2.3516-4.3203 0.78906-8.6406 1.6719-13 2.1094v-0.003906c-10.613 0.97656-21.285 1.2031-31.93 0.67188zm46.742 14.848c-0.023437 0.76953-0.35547 1.4961-0.92187 2.0156-0.5625 0.52344-1.3125 0.79297-2.0781 0.75781h-6.5508-6.5391c-0.625 0.082031-1.2344-0.22656-1.5312-0.77734-0.30078-0.55078-0.23047-1.2305 0.17969-1.7031 2.6797-4.2305 6.3516-6.7383 11.559-6.4805h2.8789 0.003906c0.76563-0.035157 1.5156 0.23828 2.082 0.76172 0.5625 0.52344 0.89453 1.25 0.91797 2.0156 0.066407 1.1367 0.066407 2.2773 0 3.4102z" />
    </g>
</svg>