<?xml version="1.0" encoding="UTF-8"?>
<svg fill="#FFFFFF" width="100pt" height="100pt" version="1.1" viewBox="0 0 100 100" xmlns="http://www.w3.org/2000/svg">
    <g>
        <path d="m48.438 53.125h31.25v18.75h-31.25z" />
        <path d="m34.375 32.812h59.375v7.8125h-59.375z" />
        <path d="m42.188 70.312h3.125v-3.125h-3.125v-9.375h3.125v-3.125h-3.125v-10.938h-3.125v50h-1.5625v3.125h6.25v-3.125h-1.5625z" />
        <path d="m89.062 43.75h-3.125v10.938h-3.125v3.125h3.125v7.8125h-3.125v3.125h3.125v25h-1.5625v3.125h6.25v-3.125h-1.5625z" />
        <path d="m81.25 82.812h-34.375c-0.86328 0-1.5625 0.69922-1.5625 1.5625v6.25c0 0.41406 0.16406 0.8125 0.45703 1.1055s0.69141 0.45703 1.1055 0.45703h4.6875v4.6875h3.125v-4.6875h18.75v4.6875h3.125v-4.6875h4.6875c0.41406 0 0.8125-0.16406 1.1055-0.45703s0.45703-0.69141 0.45703-1.1055v-6.25c0-0.41406-0.16406-0.8125-0.45703-1.1055s-0.69141-0.45703-1.1055-0.45703z" />
        <path d="m14.062 68.75h12.5v-20.312h-12.5zm3.125-17.188h6.25v3.125h-6.25zm0 6.25h6.25v3.125h-6.25z" />
        <path d="m7.8125 43.75h-3.125v50h-1.5625v3.125h6.25v-3.125h-1.5625v-26.562h3.125v-17.188h-3.125z" />
        <path d="m26.562 11.457c-0.86328 0-1.5625-0.69922-1.5625-1.5625-0.042969-1.9844-1.6602-3.5703-3.6445-3.5703s-3.6055 1.5859-3.6484 3.5703c0 0.41406-0.16406 0.8125-0.45703 1.1055s-0.69141 0.45703-1.1055 0.45703c-1.9844 0.042969-3.5703 1.6641-3.5703 3.6484s1.5859 3.6016 3.5703 3.6445h10.418c1.9844-0.042969 3.5703-1.6602 3.5703-3.6445s-1.5859-3.6055-3.5703-3.6484z" />
        <path d="m70.312 23.438h12.5c2.5898 0 4.6875-2.0977 4.6875-4.6875s-2.0977-4.6875-4.6875-4.6875c-0.86328 0-1.5625-0.69922-1.5625-1.5625 0-2.5898-2.0977-4.6875-4.6875-4.6875s-4.6875 2.0977-4.6875 4.6875c0 0.41406-0.16406 0.8125-0.45703 1.1055s-0.69141 0.45703-1.1055 0.45703c-2.5898 0-4.6875 2.0977-4.6875 4.6875s2.0977 4.6875 4.6875 4.6875z" />
    </g>
</svg>