<?xml version="1.0" encoding="UTF-8"?>
<svg fill="#FFFFFF" width="100pt" height="100pt" version="1.1" viewBox="0 0 100 100" xmlns="http://www.w3.org/2000/svg">
    <g>
        <path d="m85.938 3.125h-71.875c-6.0391 0.007812-10.93 4.8984-10.938 10.938v53.125c0.007812 6.0391 4.8984 10.93 10.938 10.938h8.4102l1.8281 3.6602c0.78906 1.5898 2.4141 2.5977 4.1914 2.5898h10.57v4.6875c0 0.41406 0.16406 0.8125 0.45703 1.1055s0.69141 0.45703 1.1055 0.45703h4.6875v3.125h-4.6875v3.125h18.75v-3.125h-4.6875v-3.125h4.6875c0.41406 0 0.8125-0.16406 1.1055-0.45703s0.45703-0.69141 0.45703-1.1055v-4.6875h10.57c1.7773 0.007812 3.4023-1 4.1914-2.5898l1.8281-3.6602h8.4102c6.0391-0.007812 10.93-4.8984 10.938-10.938v-53.125c-0.007812-6.0391-4.8984-10.93-10.938-10.938zm-34.375 90.625h-3.125v-3.125h3.125zm6.25-6.25h-15.625v-3.125h15.625zm15.09-7.1133c-0.26562 0.52734-0.80469 0.86328-1.3945 0.86328h-43.016c-0.58984 0-1.1289-0.33594-1.3945-0.86328l-1.1328-2.2617h48.07zm20.848-13.199c-0.003906 4.3125-3.5 7.8086-7.8125 7.8125h-71.875c-4.3125-0.003906-7.8086-3.5-7.8125-7.8125v-53.125c0.003906-4.3125 3.5-7.8086 7.8125-7.8125h71.875c4.3125 0.003906 7.8086 3.5 7.8125 7.8125z" />
        <path d="m84.375 10.938h-68.75c-2.5898 0-4.6875 2.0977-4.6875 4.6875v50c0 2.5898 2.0977 4.6875 4.6875 4.6875h68.75c2.5898 0 4.6875-2.0977 4.6875-4.6875v-50c0-2.5898-2.0977-4.6875-4.6875-4.6875zm1.5625 54.688c0 0.41406-0.16406 0.8125-0.45703 1.1055s-0.69141 0.45703-1.1055 0.45703h-68.75c-0.86328 0-1.5625-0.69922-1.5625-1.5625v-50c0-0.86328 0.69922-1.5625 1.5625-1.5625h68.75c0.41406 0 0.8125 0.16406 1.1055 0.45703s0.45703 0.69141 0.45703 1.1055z" />
        <path d="m50 17.188c-1.8945 0-3.6055 1.1406-4.332 2.8945-0.72266 1.75-0.32422 3.7656 1.0156 5.1094 1.3438 1.3398 3.3594 1.7383 5.1094 1.0156 1.7539-0.72656 2.8945-2.4375 2.8945-4.332 0-2.5898-2.0977-4.6875-4.6875-4.6875zm0 6.25c-0.63281 0-1.2031-0.37891-1.4453-0.96484-0.23828-0.58203-0.10547-1.2539 0.33984-1.7031 0.44922-0.44531 1.1211-0.57812 1.7031-0.33984 0.58594 0.24219 0.96484 0.8125 0.96484 1.4453 0 0.41406-0.16406 0.8125-0.45703 1.1055s-0.69141 0.45703-1.1055 0.45703z" />
        <path d="m37.5 17.188c-1.8945 0-3.6055 1.1406-4.332 2.8945-0.72266 1.75-0.32422 3.7656 1.0156 5.1094 1.3438 1.3398 3.3594 1.7383 5.1094 1.0156 1.7539-0.72656 2.8945-2.4375 2.8945-4.332 0-2.5898-2.0977-4.6875-4.6875-4.6875zm0 6.25c-0.63281 0-1.2031-0.37891-1.4453-0.96484-0.23828-0.58203-0.10547-1.2539 0.33984-1.7031 0.44922-0.44531 1.1211-0.57812 1.7031-0.33984 0.58594 0.24219 0.96484 0.8125 0.96484 1.4453 0 0.41406-0.16406 0.8125-0.45703 1.1055s-0.69141 0.45703-1.1055 0.45703z" />
        <path d="m25 17.188c-1.8945 0-3.6055 1.1406-4.332 2.8945-0.72266 1.75-0.32422 3.7656 1.0156 5.1094 1.3438 1.3398 3.3594 1.7383 5.1094 1.0156 1.7539-0.72656 2.8945-2.4375 2.8945-4.332 0-2.5898-2.0977-4.6875-4.6875-4.6875zm0 6.25c-0.63281 0-1.2031-0.37891-1.4453-0.96484-0.23828-0.58203-0.10547-1.2539 0.33984-1.7031 0.44922-0.44531 1.1211-0.57812 1.7031-0.33984 0.58594 0.24219 0.96484 0.8125 0.96484 1.4453 0 0.41406-0.16406 0.8125-0.45703 1.1055s-0.69141 0.45703-1.1055 0.45703z" />
        <path d="m75 17.188c-1.8945 0-3.6055 1.1406-4.332 2.8945-0.72266 1.75-0.32422 3.7656 1.0156 5.1094 1.3438 1.3398 3.3594 1.7383 5.1094 1.0156 1.7539-0.72656 2.8945-2.4375 2.8945-4.332 0-2.5898-2.0977-4.6875-4.6875-4.6875zm0 6.25c-0.63281 0-1.2031-0.37891-1.4453-0.96484-0.23828-0.58203-0.10547-1.2539 0.33984-1.7031 0.44922-0.44531 1.1211-0.57812 1.7031-0.33984 0.58594 0.24219 0.96484 0.8125 0.96484 1.4453 0 0.41406-0.16406 0.8125-0.45703 1.1055s-0.69141 0.45703-1.1055 0.45703z" />
        <path d="m62.5 17.188c-1.8945 0-3.6055 1.1406-4.332 2.8945-0.72266 1.75-0.32422 3.7656 1.0156 5.1094 1.3438 1.3398 3.3594 1.7383 5.1094 1.0156 1.7539-0.72656 2.8945-2.4375 2.8945-4.332 0-2.5898-2.0977-4.6875-4.6875-4.6875zm0 6.25c-0.63281 0-1.2031-0.37891-1.4453-0.96484-0.23828-0.58203-0.10547-1.2539 0.33984-1.7031 0.44922-0.44531 1.1211-0.57812 1.7031-0.33984 0.58594 0.24219 0.96484 0.8125 0.96484 1.4453 0 0.41406-0.16406 0.8125-0.45703 1.1055s-0.69141 0.45703-1.1055 0.45703z" />
        <path d="m50 29.688c-1.8945 0-3.6055 1.1406-4.332 2.8945-0.72266 1.75-0.32422 3.7656 1.0156 5.1094 1.3438 1.3398 3.3594 1.7383 5.1094 1.0156 1.7539-0.72656 2.8945-2.4375 2.8945-4.332 0-2.5898-2.0977-4.6875-4.6875-4.6875zm0 6.25c-0.63281 0-1.2031-0.37891-1.4453-0.96484-0.23828-0.58203-0.10547-1.2539 0.33984-1.7031 0.44922-0.44531 1.1211-0.57812 1.7031-0.33984 0.58594 0.24219 0.96484 0.8125 0.96484 1.4453 0 0.41406-0.16406 0.8125-0.45703 1.1055s-0.69141 0.45703-1.1055 0.45703z" />
        <path d="m37.5 29.688c-1.8945 0-3.6055 1.1406-4.332 2.8945-0.72266 1.75-0.32422 3.7656 1.0156 5.1094 1.3438 1.3398 3.3594 1.7383 5.1094 1.0156 1.7539-0.72656 2.8945-2.4375 2.8945-4.332 0-2.5898-2.0977-4.6875-4.6875-4.6875zm0 6.25c-0.63281 0-1.2031-0.37891-1.4453-0.96484-0.23828-0.58203-0.10547-1.2539 0.33984-1.7031 0.44922-0.44531 1.1211-0.57812 1.7031-0.33984 0.58594 0.24219 0.96484 0.8125 0.96484 1.4453 0 0.41406-0.16406 0.8125-0.45703 1.1055s-0.69141 0.45703-1.1055 0.45703z" />
        <path d="m25 29.688c-1.8945 0-3.6055 1.1406-4.332 2.8945-0.72266 1.75-0.32422 3.7656 1.0156 5.1094 1.3438 1.3398 3.3594 1.7383 5.1094 1.0156 1.7539-0.72656 2.8945-2.4375 2.8945-4.332 0-2.5898-2.0977-4.6875-4.6875-4.6875zm0 6.25c-0.63281 0-1.2031-0.37891-1.4453-0.96484-0.23828-0.58203-0.10547-1.2539 0.33984-1.7031 0.44922-0.44531 1.1211-0.57812 1.7031-0.33984 0.58594 0.24219 0.96484 0.8125 0.96484 1.4453 0 0.41406-0.16406 0.8125-0.45703 1.1055s-0.69141 0.45703-1.1055 0.45703z" />
        <path d="m75 29.688c-1.8945 0-3.6055 1.1406-4.332 2.8945-0.72266 1.75-0.32422 3.7656 1.0156 5.1094 1.3438 1.3398 3.3594 1.7383 5.1094 1.0156 1.7539-0.72656 2.8945-2.4375 2.8945-4.332 0-2.5898-2.0977-4.6875-4.6875-4.6875zm0 6.25c-0.63281 0-1.2031-0.37891-1.4453-0.96484-0.23828-0.58203-0.10547-1.2539 0.33984-1.7031 0.44922-0.44531 1.1211-0.57812 1.7031-0.33984 0.58594 0.24219 0.96484 0.8125 0.96484 1.4453 0 0.41406-0.16406 0.8125-0.45703 1.1055s-0.69141 0.45703-1.1055 0.45703z" />
        <path d="m62.5 29.688c-1.8945 0-3.6055 1.1406-4.332 2.8945-0.72266 1.75-0.32422 3.7656 1.0156 5.1094 1.3438 1.3398 3.3594 1.7383 5.1094 1.0156 1.7539-0.72656 2.8945-2.4375 2.8945-4.332 0-2.5898-2.0977-4.6875-4.6875-4.6875zm0 6.25c-0.63281 0-1.2031-0.37891-1.4453-0.96484-0.23828-0.58203-0.10547-1.2539 0.33984-1.7031 0.44922-0.44531 1.1211-0.57812 1.7031-0.33984 0.58594 0.24219 0.96484 0.8125 0.96484 1.4453 0 0.41406-0.16406 0.8125-0.45703 1.1055s-0.69141 0.45703-1.1055 0.45703z" />
        <path d="m50 42.188c-1.8945 0-3.6055 1.1406-4.332 2.8945-0.72266 1.75-0.32422 3.7656 1.0156 5.1094 1.3438 1.3398 3.3594 1.7383 5.1094 1.0156 1.7539-0.72656 2.8945-2.4375 2.8945-4.332 0-2.5898-2.0977-4.6875-4.6875-4.6875zm0 6.25c-0.63281 0-1.2031-0.37891-1.4453-0.96484-0.23828-0.58203-0.10547-1.2539 0.33984-1.7031 0.44922-0.44531 1.1211-0.57812 1.7031-0.33984 0.58594 0.24219 0.96484 0.8125 0.96484 1.4453 0 0.41406-0.16406 0.8125-0.45703 1.1055s-0.69141 0.45703-1.1055 0.45703z" />
        <path d="m37.5 42.188c-1.8945 0-3.6055 1.1406-4.332 2.8945-0.72266 1.75-0.32422 3.7656 1.0156 5.1094 1.3438 1.3398 3.3594 1.7383 5.1094 1.0156 1.7539-0.72656 2.8945-2.4375 2.8945-4.332 0-2.5898-2.0977-4.6875-4.6875-4.6875zm0 6.25c-0.63281 0-1.2031-0.37891-1.4453-0.96484-0.23828-0.58203-0.10547-1.2539 0.33984-1.7031 0.44922-0.44531 1.1211-0.57812 1.7031-0.33984 0.58594 0.24219 0.96484 0.8125 0.96484 1.4453 0 0.41406-0.16406 0.8125-0.45703 1.1055s-0.69141 0.45703-1.1055 0.45703z" />
        <path d="m25 42.188c-1.8945 0-3.6055 1.1406-4.332 2.8945-0.72266 1.75-0.32422 3.7656 1.0156 5.1094 1.3438 1.3398 3.3594 1.7383 5.1094 1.0156 1.7539-0.72656 2.8945-2.4375 2.8945-4.332 0-2.5898-2.0977-4.6875-4.6875-4.6875zm0 6.25c-0.63281 0-1.2031-0.37891-1.4453-0.96484-0.23828-0.58203-0.10547-1.2539 0.33984-1.7031 0.44922-0.44531 1.1211-0.57812 1.7031-0.33984 0.58594 0.24219 0.96484 0.8125 0.96484 1.4453 0 0.41406-0.16406 0.8125-0.45703 1.1055s-0.69141 0.45703-1.1055 0.45703z" />
        <path d="m75 42.188c-1.8945 0-3.6055 1.1406-4.332 2.8945-0.72266 1.75-0.32422 3.7656 1.0156 5.1094 1.3438 1.3398 3.3594 1.7383 5.1094 1.0156 1.7539-0.72656 2.8945-2.4375 2.8945-4.332 0-2.5898-2.0977-4.6875-4.6875-4.6875zm0 6.25c-0.63281 0-1.2031-0.37891-1.4453-0.96484-0.23828-0.58203-0.10547-1.2539 0.33984-1.7031 0.44922-0.44531 1.1211-0.57812 1.7031-0.33984 0.58594 0.24219 0.96484 0.8125 0.96484 1.4453 0 0.41406-0.16406 0.8125-0.45703 1.1055s-0.69141 0.45703-1.1055 0.45703z" />
        <path d="m62.5 42.188c-1.8945 0-3.6055 1.1406-4.332 2.8945-0.72266 1.75-0.32422 3.7656 1.0156 5.1094 1.3438 1.3398 3.3594 1.7383 5.1094 1.0156 1.7539-0.72656 2.8945-2.4375 2.8945-4.332 0-2.5898-2.0977-4.6875-4.6875-4.6875zm0 6.25c-0.63281 0-1.2031-0.37891-1.4453-0.96484-0.23828-0.58203-0.10547-1.2539 0.33984-1.7031 0.44922-0.44531 1.1211-0.57812 1.7031-0.33984 0.58594 0.24219 0.96484 0.8125 0.96484 1.4453 0 0.41406-0.16406 0.8125-0.45703 1.1055s-0.69141 0.45703-1.1055 0.45703z" />
        <path d="m50 54.688c-1.8945 0-3.6055 1.1406-4.332 2.8945-0.72266 1.75-0.32422 3.7656 1.0156 5.1094 1.3438 1.3398 3.3594 1.7383 5.1094 1.0156 1.7539-0.72656 2.8945-2.4375 2.8945-4.332 0-2.5898-2.0977-4.6875-4.6875-4.6875zm0 6.25c-0.63281 0-1.2031-0.37891-1.4453-0.96484-0.23828-0.58203-0.10547-1.2539 0.33984-1.7031 0.44922-0.44531 1.1211-0.57812 1.7031-0.33984 0.58594 0.24219 0.96484 0.8125 0.96484 1.4453 0 0.41406-0.16406 0.8125-0.45703 1.1055s-0.69141 0.45703-1.1055 0.45703z" />
        <path d="m37.5 54.688c-1.8945 0-3.6055 1.1406-4.332 2.8945-0.72266 1.75-0.32422 3.7656 1.0156 5.1094 1.3438 1.3398 3.3594 1.7383 5.1094 1.0156 1.7539-0.72656 2.8945-2.4375 2.8945-4.332 0-2.5898-2.0977-4.6875-4.6875-4.6875zm0 6.25c-0.63281 0-1.2031-0.37891-1.4453-0.96484-0.23828-0.58203-0.10547-1.2539 0.33984-1.7031 0.44922-0.44531 1.1211-0.57812 1.7031-0.33984 0.58594 0.24219 0.96484 0.8125 0.96484 1.4453 0 0.41406-0.16406 0.8125-0.45703 1.1055s-0.69141 0.45703-1.1055 0.45703z" />
        <path d="m25 54.688c-1.8945 0-3.6055 1.1406-4.332 2.8945-0.72266 1.75-0.32422 3.7656 1.0156 5.1094 1.3438 1.3398 3.3594 1.7383 5.1094 1.0156 1.7539-0.72656 2.8945-2.4375 2.8945-4.332 0-2.5898-2.0977-4.6875-4.6875-4.6875zm0 6.25c-0.63281 0-1.2031-0.37891-1.4453-0.96484-0.23828-0.58203-0.10547-1.2539 0.33984-1.7031 0.44922-0.44531 1.1211-0.57812 1.7031-0.33984 0.58594 0.24219 0.96484 0.8125 0.96484 1.4453 0 0.41406-0.16406 0.8125-0.45703 1.1055s-0.69141 0.45703-1.1055 0.45703z" />
        <path d="m75 54.688c-1.8945 0-3.6055 1.1406-4.332 2.8945-0.72266 1.75-0.32422 3.7656 1.0156 5.1094 1.3438 1.3398 3.3594 1.7383 5.1094 1.0156 1.7539-0.72656 2.8945-2.4375 2.8945-4.332 0-2.5898-2.0977-4.6875-4.6875-4.6875zm0 6.25c-0.63281 0-1.2031-0.37891-1.4453-0.96484-0.23828-0.58203-0.10547-1.2539 0.33984-1.7031 0.44922-0.44531 1.1211-0.57812 1.7031-0.33984 0.58594 0.24219 0.96484 0.8125 0.96484 1.4453 0 0.41406-0.16406 0.8125-0.45703 1.1055s-0.69141 0.45703-1.1055 0.45703z" />
        <path d="m62.5 54.688c-1.8945 0-3.6055 1.1406-4.332 2.8945-0.72266 1.75-0.32422 3.7656 1.0156 5.1094 1.3438 1.3398 3.3594 1.7383 5.1094 1.0156 1.7539-0.72656 2.8945-2.4375 2.8945-4.332 0-2.5898-2.0977-4.6875-4.6875-4.6875zm0 6.25c-0.63281 0-1.2031-0.37891-1.4453-0.96484-0.23828-0.58203-0.10547-1.2539 0.33984-1.7031 0.44922-0.44531 1.1211-0.57812 1.7031-0.33984 0.58594 0.24219 0.96484 0.8125 0.96484 1.4453 0 0.41406-0.16406 0.8125-0.45703 1.1055s-0.69141 0.45703-1.1055 0.45703z" />
    </g>
</svg>