<?xml version="1.0" encoding="UTF-8"?>
<svg fill="#FFFFFF" width="100pt" height="100pt" version="1.1" viewBox="0 0 100 100" xmlns="http://www.w3.org/2000/svg">
    <path d="m25.5 47.5h52c2.2188 0 2.0195-1.2109 1.7109-1.7344-0.51563-0.87891-7.9727-13.555-7.9727-13.555-0.92578-1.5703-2.9141-2.7109-4.7383-2.7109h-30c-1.8203 0-3.8125 1.1406-4.7383 2.7109 0 0-7.457 12.676-7.9727 13.555-0.30859 0.52344-0.50781 1.7344 1.7109 1.7344zm54.785 1.1992c-0.57031 0.44922-1.4453 0.80078-2.7852 0.80078h-52c-1.3398 0-2.2148-0.35156-2.7852-0.80078-0.13672 0.63672-0.21484 1.2617-0.21484 1.8008v12c0 2.207 1.7969 4 4 4h50c2.2031 0 4-1.793 4-4v-12c0-0.53906-0.078125-1.1641-0.21484-1.8008zm-9.7852 10.801c-1.1055 0-2-0.89453-2-2s0.89453-2 2-2 2 0.89453 2 2-0.89453 2-2 2z" />
</svg>