<?xml version="1.0" encoding="UTF-8"?>
<svg fill="#FFFFFF" width="100pt" height="100pt" version="1.1" viewBox="0 0 100 100" xmlns="http://www.w3.org/2000/svg">
    <path d="m12 16.5c-3.0234 0-5.5 2.4727-5.5 5.5v39.969c0 3.0273 2.4766 5.5312 5.5 5.5312h76c3.0234 0 5.5-2.5039 5.5-5.5312v-39.969c0-3.0273-2.4766-5.5-5.5-5.5zm28.156 54.5c-0.17578 1.2852-0.44531 2.5586-0.8125 3.75-0.79688 2.5977-2.082 4.6836-3.8125 5.75h-8.5312c-0.10547-0.011719-0.20703-0.011719-0.3125 0-0.78516 0.082031-1.4258 0.87109-1.3438 1.6562s0.87109 1.4258 1.6562 1.3438h46c0.79297 0.011719 1.5195-0.70703 1.5195-1.5s-0.73047-1.5117-1.5195-1.5h-8.5312c-1.7305-1.0664-3.0156-3.1523-3.8125-5.75-0.36719-1.1914-0.63672-2.4648-0.8125-3.75z" />
</svg>