<?xml version="1.0" encoding="UTF-8"?>
<svg fill="#FFFFFF" width="100pt" height="100pt" version="1.1" viewBox="0 0 100 100" xmlns="http://www.w3.org/2000/svg">
    <g>
        <path d="m41.301 58.801h17.598l-3.0977-15.301h-11.199z" />
        <path d="m40.199 63.898-3.3008 15.301h26.301l-3.1992-15.301z" />
        <path d="m74.102 44.602c-0.30078-0.69922-1-1.1016-1.8008-1.1016h-11.301l3.1992 15.301h17.301z" />
        <path d="m9.5 76.301c-0.69922 1.3008 0.30078 2.8984 1.8008 2.8984h20.398l3.3008-15.301h-19.102z" />
        <path d="m90.5 76.301-6.3984-12.398-18.801-0.003906 3.1992 15.301h20.301c1.5 0 2.3984-1.5977 1.6992-2.8984z" />
        <path d="m27.699 43.5c-0.69922 0-1.3984 0.39844-1.8008 1.1016l-7.3984 14.199h17.5l3.3008-15.301z" />
        <path d="m30.699 92.398h-4.1992v-9.1016h-5.1016v9.1016h-4.1992c-0.80078 0-1.3984 0.60156-1.3984 1.3984v2.3984c0 0.80078 0.60156 1.3984 1.3984 1.3984h13.602c0.80078 0 1.3984-0.60156 1.3984-1.3984v-2.3984c-0.097657-0.79688-0.69922-1.3984-1.5-1.3984z" />
        <path d="m82.801 92.398h-4.1992v-9.1016h-5.1016v9.1016h-4.1992c-0.80078 0-1.3984 0.60156-1.3984 1.3984v2.3984c0 0.80078 0.60156 1.3984 1.3984 1.3984h13.602c0.80078 0 1.3984-0.60156 1.3984-1.3984v-2.3984c-0.10156-0.79688-0.69922-1.3984-1.5-1.3984z" />
        <path d="m39.199 38.301h21.699c1.3984-2.1016 2.1992-4.6016 2.1992-7.1992 0-7.1992-5.8008-13-13-13-7.1992 0-13 5.8008-13 13-0.097656 2.6992 0.70312 5.1992 2.1016 7.1992z" />
        <path d="m50 14.301c1.3984 0 2.6016-1.1992 2.6016-2.6016v-6.5977c0-1.3984-1.1992-2.6016-2.6016-2.6016-1.3984 0-2.6016 1.1992-2.6016 2.6016v6.6016c0 1.3984 1.2031 2.5977 2.6016 2.5977z" />
        <path d="m34.5 19.199c0.5 0.5 1.1992 0.80078 1.8008 0.80078 0.60156 0 1.3008-0.30078 1.8008-0.80078 1-1 1-2.6016 0-3.6016l-4.6992-4.6992c-1-1-2.6016-1-3.6016 0s-1 2.6016 0 3.6016z" />
        <path d="m24 33.699h6.6016c1.3984 0 2.6016-1.1992 2.6016-2.6016 0-1.3984-1.1992-2.6016-2.6016-2.6016l-6.6016 0.003906c-1.3984 0-2.6016 1.1992-2.6016 2.6016 0 1.3984 1.1016 2.5977 2.6016 2.5977z" />
        <path d="m66.898 31.102c0 1.3984 1.1992 2.6016 2.6016 2.6016l6.5-0.003906c1.3984 0 2.6016-1.1992 2.6016-2.6016 0-1.3984-1.1992-2.6016-2.6016-2.6016h-6.6016c-1.3984 0.003906-2.5 1.2031-2.5 2.6055z" />
        <path d="m63.699 20c0.69922 0 1.3008-0.30078 1.8008-0.80078l4.6992-4.6992c1-1 1-2.6016 0-3.6016s-2.6016-1-3.6016 0l-4.6992 4.6992c-1 1-1 2.6016 0 3.6016 0.5 0.5 1.2031 0.80078 1.8008 0.80078z" />
    </g>
</svg>